# xmcd CD database file
#
# Track frame offsets:
#	150
#	24886
#	49899
#
# Disc length: 995 seconds
#
# Revision: 0
# Processed by: cddbd v1.5.1PL0 Copyright (c) Steve Scherf et al.
# Submitted via: CDex 1.51
#
DISCID=1a03e103
DTITLE=石井竜也 - 心の言葉
DYEAR=2005
DGENRE=J-Pop
TTITLE0=心の言葉
TTITLE1=アナタノソラ（Single Version）
TTITLE2=心の言葉（backtracks）
EXTD=YEAR: 2005
EXTT0=
EXTT1=
EXTT2=
PLAYORDER=
